<?xml version="1.0" encoding="UTF-8" standalone="no"?>
<svg
   xmlns:dc="http://purl.org/dc/elements/1.1/"
   xmlns:cc="http://creativecommons.org/ns#"
   xmlns:rdf="http://www.w3.org/1999/02/22-rdf-syntax-ns#"
   xmlns:svg="http://www.w3.org/2000/svg"
   xmlns="http://www.w3.org/2000/svg"
   id="svg993"
   version="1.1"
   viewBox="0 0 234.6773 170.37064"
   height="170.37064mm"
   width="234.67731mm">
  <defs
     id="defs987" />
  <metadata
     id="metadata990">
    <rdf:RDF>
      <cc:Work
         rdf:about="">
        <dc:format>image/svg+xml</dc:format>
        <dc:type
           rdf:resource="http://purl.org/dc/dcmitype/StillImage" />
        <dc:title></dc:title>
      </cc:Work>
    </rdf:RDF>
  </metadata>
  <path
     d="m 214.89744,0.00316361 c -0.12808,0.022 -0.27574,0.13747 -0.41238,0.25063 -0.2044,0.68582 -1.31971,0.12303 -1.31671,0.83922999 -0.2785,0.54185 -0.4594,1.38781 -0.34985,2.06912 -0.57047,0.66587 -1.08314,-0.54118 -1.69344,-0.447 -0.51559,0.35358 -0.74005,-1.09098 -0.94051,-0.32453 -0.49148,0.17496 -0.14904,0.89828 0.17777,1.1405 0.0548,0.12387 0.49364,1.00442 -0.0982,0.74879 -0.30477,0.20179 -0.75101,0.75431 -0.83251,1.20665 -0.0229,0.71569 -0.0616,1.4364 -0.0279,2.15645 -0.21538,0.2157 -0.32919,-0.18859 -0.58395,-0.0785 -1.13001,-0.46573 -2.2894,-0.85036 -3.31297,-1.5043 -1.04375,-0.50275 -1.00505,1.43246 -1.66967,0.81081 -0.80778,0.0707 -2.13821,-1.26468 -2.11511,0.10387 -0.38598,1.17996 -0.20277,2.36502 -0.89142,3.4075404 -0.83835,0.81041 0.25424,3.26383 -1.58544,2.36265 -0.60624,-0.98424 -1.61068,-0.45988 -1.97713,0.37207 -1.20694,-0.61209 -1.76542,1.01678 -2.80087,1.20251 -0.33092,1.116 -1.55657,1.67006 -1.61747,2.7435 1.0362,1.14493 -0.22114,2.68359 0.52452,3.88607 -1.15985,1.0013 1.00841,2.07035 -0.2589,3.02307 0.35625,0.96416 -0.7462,0.34218 -1.24179,0.86661 -1.25993,-0.46965 -1.00279,1.94884 -2.24844,1.49965 -0.95153,1.1439 1.28892,0.68477 0.69143,1.5751 -1.09702,0.67785 0.0557,1.95597 -1.00976,2.57504 0.91588,0.72694 -0.29934,1.63549 -0.25114,2.55075 -0.8491,0.94619 -0.81338,2.27172 -1.24541,3.41322 0.10443,0.27771 0.12314,0.58815 0.28733,0.84233 -0.30605,0.33086 -0.41277,-0.36512 -0.7767,-0.17053 -0.35801,0.22598 -0.36945,-0.21715 -0.48731,-0.44545 -0.32997,-0.22691 -0.64884,0.37669 -0.74983,0.67076 -0.32453,-0.22502 -0.62254,-0.49066 -0.97306,-0.67541 -0.38718,-0.0854 -0.68371,-0.38984 -1.04231,-0.54829 -0.30991,-0.16619 -0.60096,0.11582 -0.90951,0.14986 -0.36702,0.19182 -0.47564,-0.1979 -0.23978,-0.43873 0.24558,-0.48643 -0.3481,-0.31304 -0.64492,-0.34107 -0.43024,-0.0856 -0.0317,0.29732 0,0.50695 0.12703,0.42629 -0.74142,0.29487 -0.78031,0.75912 0.004,0.37513 -0.26411,0.66989 -0.5023,0.9307 -0.23984,0.25588 -0.61355,0.5022 -0.55035,0.90382 0.21459,0.28092 0.0638,0.73589 0.39946,0.91829 0.0248,0.41849 -0.105,0.92444 0.24236,1.24695 -0.61733,-0.0861 -0.59379,-0.95499 -1.28726,-0.80305 -0.14007,-0.63198 -0.71735,-0.62243 -1.20665,-0.26303 -0.27729,0.64452 -1.39389,0.48615 -1.19062,-0.28319 -0.52696,-0.33634 -1.32074,-0.0115 -1.91203,0.0403 0.21695,-0.53364 0.51896,-1.24585 -0.0181,-1.75804 0.0629,-0.37451 -0.85319,-1.32615 -0.61288,-0.55552 0.52547,0.18056 0.23322,1.08829 -0.0506,0.40928 -0.15949,-0.7472 -0.48506,-0.90521 -1.13844,-0.69143 -0.80468,-0.25538 -1.09304,0.49386 -0.95239,1.19889 -0.31245,0.4254 -0.74045,1.02251 -1.42472,0.74466 -0.694,0.50577 -1.5962,0.27932 -2.2779,0.76584 -0.85411,0.32932 -1.3419,-0.56306 -1.97507,-0.76377 -0.86803,0.0635 -0.4653,-1.02999 -1.2206,-0.86662 0.25144,-1.21628 -0.79675,-0.0384 -1.16685,0.35967 0.0762,0.94484 -0.79493,1.23609 -1.50327,1.42782 0.21791,0.51542 -0.17675,0.82013 -0.52245,1.20251 -0.51037,0.0663 -1.10149,-0.16538 -1.42989,0.30851 -0.4029,0.36378 -0.7488,0.76394 -0.88366,1.30742 0.0751,0.70509 -0.56993,0.93216 -0.51883,1.60403 -0.43183,0.67412 0.31605,0.98725 0.0558,1.74408 0.15862,0.9969 -1.28953,0.33517 -1.29553,1.12241 0.0937,0.84719 0.21131,1.82473 -0.63769,2.33423 -0.77957,-0.40323 -1.89337,-0.31153 -2.39934,-1.17874 -0.6594,-0.95975 -1.97956,-1.18501 -2.42879,-2.30477 -0.70467,-0.40476 -1.86072,0.063 -2.69957,-0.39894 0.0601,-0.79701 -0.99413,-0.51326 -1.16479,-1.05937 0.32949,-0.62209 1.07149,-0.62849 1.12189,-1.50533 1.15987,-0.71228 -0.47175,-1.64306 0.31781,-2.34301 -0.3474,-0.83425 0.29416,-1.34987 0.6749,-2.03812 -0.61791,0.16017 -2.44165,-0.51857 -2.31769,0.37155 -0.99023,0.0115 -1.80187,-1.05284 -2.8453,-1.73426 -0.0531,0.84378 -0.70376,1.36936 -1.726,1.28623 -1.23315,0.57957 -1.44996,-1.01464 -2.47892,-0.94258 -0.78336,-0.48396 -1.15,-1.8294 -0.50074,-2.60449 0.45461,-1.21186 0.11751,-2.33466 -0.69246,-3.44631 -0.48062,-1.12957 -2.13954,-1.73022 -3.22203,-1.07693 -1.33124,0.24512 0.324,-0.48251 0.21291,-1.08676 -0.0112,-1.41438 -1.63896,0.14705 -2.34766,0 -0.15787,1.17989 -1.66489,0.53491 -1.89911,1.64383 -1.21355,0.30196 -2.5429,-0.4251 -3.252,-1.4056 -0.19711,-0.59079 -0.96049,-1.81285 -1.63814,-2.08928 -0.84143,-0.25556 -1.83111,-0.45228 -2.67529,-0.22634 -0.3095,0.72722 -0.88194,0.63996 -1.54203,0.44493 -1.01304,0.18008 -0.9846,-0.91592 -1.896,-1.00717 -1.05811,-0.72533 -0.95066,0.75491 -1.48984,1.23817 -0.35762,0.58363 -1.33579,1.38896 -0.71003,2.2872 -0.0454,0.86075 -0.4119,1.56681 -0.91416,2.23655 -0.35559,0.90607 -1.64647,0.41975 -2.06757,1.09709 0.87331,0.33876 0.6174,1.27781 0.76739,1.98696 0.34833,0.89653 0.81508,2.24589 0.11318,3.02721 -0.88165,0.47311 -1.80147,-0.0364 -2.71043,-0.0109 -0.32726,-0.783 -1.22105,-0.72864 -1.90996,-0.94568 -1.21446,0.26629 -0.056,1.49898 -0.54105,1.96525 -0.34839,0.74635 -1.24747,-0.53979 -1.29347,0.0847 0.35631,0.74192 -0.18478,1.89651 -1.0666,1.78232 -0.91553,0.0415 -0.48951,-0.82779 -1.11001,-1.16685 -0.95148,-0.26753 -1.70017,0.66203 -2.66443,0.49868 -0.20323,0.065 -0.39348,0.20816 -0.61857,0.13436 -0.77321,-0.56128 -1.68308,-0.48474 -2.38487,0.15709 -0.63187,0.31301 -1.38923,0.19251 -2.07946,0.28215 -0.61241,0.10037 -1.2269,0.22414 -1.83503,0.0176 -0.59849,-0.21462 -1.63077,0.0421 -1.20509,0.85783 0.31717,0.82184 -0.38526,0.65794 -0.97669,0.62684 -0.81473,-0.18052 -1.06719,0.72465 -1.61127,0.96686 -0.25019,0.43942 -0.63863,0.3883 -1.125,0.30593 -0.50751,0.3899 -1.11278,0.12063 -1.75079,0.31832 -0.51503,-0.23875 -1.77813,0.38165 -0.80616,0.7519 0.0874,0.35482 0.96459,1.15169 0.26407,1.26917 -0.31154,0.4905 -0.75071,0.42262 -1.28726,0.60927 -0.56955,0.26183 -1.21284,0.18295 -1.45159,0.83302 -0.74731,-0.006 -0.5862,1.25896 -1.38079,0.8785 -1.53533,-0.13651 0.0861,-1.67364 -0.22996,-2.60914 -0.14505,-1.01346 -0.80477,0.88625 -1.23145,0.85472 -0.98588,-0.91889 -1.98335,0.0452 -3.09646,0.16537 -0.31102,0.53239 -0.65474,1.04808 -0.93482,1.59628 -0.8591,0.99717 -2.1071,-0.25172 -3.11351,0.31316 -1.31345,0.51339 -0.013,-0.789 -0.85576,-1.19837 -0.76481,-0.85654 -0.83909,-1.92363 -0.69246,-3.01171 -0.12193,-0.77778 -0.82016,-0.2036 -1.05834,0.007 -0.47946,-0.99859 -0.74133,0.4386 -1.28157,0.15297 0.0865,-0.7547 -0.47562,-0.85552 -0.25115,-1.66657 0.49674,-0.83695 -0.0651,-2.3059 -1.17409,-1.68982 -0.95309,-1.05781 -0.963,1.1921 -1.93993,0.94465 -1.4217,-0.2369 -1.52502,1.83833 -2.86649,1.63762 -0.44185,0.14344 -1.54569,0.47028 -1.70894,1.15394 -0.61226,0.55908 -0.21332,1.29117 -0.61702,1.91616 -0.0754,0.73677 -0.46159,0.8716 -1.10019,0.52555 -0.96491,-0.18942 -1.94394,-0.19072 -2.87269,-0.18862 -0.23,-0.90898 -1.75063,-0.15946 -1.06557,0.64854 -0.0222,0.89116 -1.39868,0.66996 -2.13889,0.67696 0.38916,0.51179 0.2326,0.86297 -0.13177,1.28003 0.30161,0.54301 0.18602,0.63974 -0.1602,1.11879 -0.57486,0.63695 -0.53551,1.45803 -1.12189,2.10375 -0.37304,-0.36049 -0.50624,-0.42704 -0.3049,-0.82114 -1.29108,0.42666 -1.23531,-1.16791 -1.80609,-1.81126 -0.44776,0.25394 -2.20021,0.87518 -1.63969,-0.37414 0.74181,-1.16317 -1.464,-0.47477 -1.07332,-1.45417 -0.71524,0.23873 -0.65655,-1.14254 -1.39423,-0.67955 -0.88218,0.19258 -1.80221,-0.4017 -2.20865,-1.13274 0.50245,-0.89247 -0.91261,-0.20587 -0.36639,-0.88212 0.98323,0.25271 0.21092,-0.57195 -0.14004,-0.8661 -0.92825,0.0207 -2.08588,-0.80689 -1.16634,-1.68362 0.62095,-0.45126 2.22935,-0.48895 1.44901,-1.65468 -0.31822,-0.92452 -1.00315,-1.67141 -1.3162,-2.60449 -0.31633,-0.0411 -1.56466,-0.25528 -1.24488,0.3576 0.85208,0.418 -0.27764,0.56603 -0.53124,0.96894 -0.58171,0.85559 -0.52504,-0.41268 -1.23455,-0.32195 0.0864,-0.54121 -0.67848,-0.612 -0.84077,-0.0987 -0.23482,1.28676 -0.88135,-0.41349 -1.24282,-0.56689 -0.29231,0.40649 -1.44814,0.37115 -0.99684,1.01131 0.67427,0.50158 0.41282,1.74247 -0.55087,1.27382 -1.29895,-0.15 0.73773,-1.43774 -0.60978,-1.42575 -1.49934,-0.12166 -0.024,1.95686 -1.20096,1.98903 -0.17842,0.48045 -0.83269,1.40013 -1.39992,0.60771 -0.78326,-0.66069 -0.64807,-1.61305 -0.69608,-2.46342 -0.8724,-0.42245 -0.32597,-1.7415 -1.33015,-2.00349 0.38386,-0.79984 -0.68999,-0.34531 -0.47387,-1.1591 -0.35186,-1.15417 -1.48678,-1.12687 -2.15749,-1.91927 -0.3343,0.74419 -0.75171,1.76595 -0.8568,2.15129 -0.15323,0.56186 -1.86446,2.45186 -2.17093,2.65617 -0.30646,0.20431 -2.04315,5e-5 -2.605,-0.12764 -0.56186,-0.12769 -1.65107,0.41186 -1.65107,0.41186 0,0 -0.95362,-0.25852 -1.23455,-0.1819 -0.28092,0.0766 -1.56661,0.58537 -1.99212,1.25109 -0.42552,0.6657 -2.47721,0.61334 -3.34553,0.74104 -0.86833,0.12769 -1.60988,-0.31545 -1.94769,-0.48059 -0.33781,-0.16515 -2.64962,0.35287 -3.23701,0.30179 -0.5874,-0.0511 -1.8132,-0.28134 -2.37505,-0.74104 -0.56186,-0.4597 -2.1243,-0.34689 -3.06338,-0.33383 -0.93907,0.0131 -1.32391,-0.15377 -2.42724,0.28318 -1.10333,0.43696 -2.73271,0.51065 -3.09025,0.56173 -0.0887,0.0127 -0.48641,0.10138 -0.73691,0.16226 -0.66912,0.35714 -0.13935,1.27667 -0.58136,1.81695 -0.39894,0.55773 -0.32377,1.08503 0.0791,1.64692 0.63675,-0.11682 0.58571,0.34865 0.47232,0.8568 -0.27231,1.01398 0.9607,0.24687 1.44022,0.786 0.0407,0.4533 0.55594,0.70368 0.58705,1.11156 -0.0678,0.48573 1.02511,0.90373 0.22531,1.02422 -0.45351,0.53252 -0.77011,1.48173 -1.67484,1.17151 -0.7451,0.10206 -1.04968,0.96164 -1.71876,1.24127 -0.0571,0.66548 0.57435,0.86362 1.02216,1.17719 0.64574,0.78086 0.0142,1.67431 -0.31574,2.36626 -0.99715,0.14634 -0.44546,1.05324 -0.74156,1.64744 0.35143,0.66967 -0.39408,1.20357 -0.45165,1.86862 -0.41001,0.54842 -0.48179,1.22613 -0.79013,1.80765 -0.12489,0.80206 -0.52707,1.58569 -1.36788,1.85104 0.16574,0.0866 0.34111,0.17312 0.38189,0.17312 0.0819,0 1.15786,0.21021 1.33326,0.0465 0.17539,-0.1637 0.3741,-0.24534 0.65474,-0.17518 0.28063,0.0702 1.06412,0.10514 1.32136,0.24546 0.25725,0.14032 0.1988,0.45627 0.40928,0.7369 0.21047,0.28064 0.71331,-0.0936 0.91209,-0.2222 0.19878,-0.12863 0.6314,0.11664 0.78341,0.32711 0.15201,0.21048 -0.047,0.70179 0.0465,1.01751 0.0935,0.31571 0.37398,0.64282 0.678,0.92345 0.30402,0.28064 0.79514,0.0468 1.09915,0.0351 0.30402,-0.0117 0.81892,1.1e-4 1.0294,0.16381 0.21047,0.1637 0.32721,0.26878 0.58446,0.30386 0.25725,0.0351 0.50268,0.19879 0.52607,0.50281 0.0234,0.30401 0.49126,0.59664 0.38602,0.86558 -0.10524,0.26894 -0.45624,0.43275 -0.5147,0.76016 -0.0585,0.3274 0.36263,0.77156 0.38602,1.08727 0.0234,0.31571 0.46751,0.58462 0.77153,0.87695 0.30402,0.29233 0.72537,1.25113 0.52659,1.47329 -0.19879,0.22217 -0.0584,0.29239 0.25734,0.63149 0.31572,0.3391 -0.0585,0.40944 0.15193,0.70177 0.21048,0.29232 0.40931,-0.10574 0.72502,-0.18759 0.31572,-0.0819 0.68993,0.52656 0.91209,0.80719 0.22217,0.28063 -0.4097,0.52599 -0.65525,0.58446 -0.24556,0.0585 -0.17495,0.5028 0.0589,0.59634 0.23386,0.0935 0.43224,-0.11705 0.75964,-0.0703 0.32741,0.0468 1.35637,0.49113 1.4733,0.40928 0.11693,-0.0819 0.99385,0.12873 1.15755,0.25735 0.1637,0.12862 0.63179,0.0587 0.80718,-0.0465 0.1754,-0.10524 0.42075,0.15159 0.678,0.35037 0.25725,0.19878 0.6898,0.0937 0.84181,-0.0233 0.15201,-0.11693 0.54952,0.2225 0.46767,0.49144 -0.0818,0.26894 0.21077,0.53748 0.26923,0.75965 0.0585,0.22216 0.44442,0.69039 0.67593,0.95498 0.23151,0.26458 0.42994,0.51263 0.3638,0.74414 -0.0661,0.23151 -0.0827,0.61185 0.3142,0.87643 0.39687,0.26458 0.42994,0.95912 0.34726,1.33945 -0.0827,0.38034 0.3638,1.37253 0.38034,1.57097 0.0165,0.19843 -0.79375,0.59531 -1.12448,0.95911 -0.33073,0.3638 0.42995,0.77722 0.84336,1.12448 0.41341,0.34727 0.79375,0.0992 1.07487,0.38034 0.28112,0.28112 -0.28112,0.38034 -0.29766,0.64492 -0.0165,0.26458 0.0183,0.91201 0.21704,1.06402 0.19879,0.15201 0.70142,-0.0355 0.99374,0.1633 0.29233,0.19878 -0.60803,0.66659 -0.59634,0.94723 1.09326,-0.24545 1.98149,1.41628 2.14974,0.76067 0.98218,0.45527 2.09172,0.356 3.11143,0.68678 0.54401,0.22211 0.98657,-0.16161 1.48002,0.24753 0.59349,0.0211 1.09313,0.33558 1.68775,0.36897 -0.14294,-0.81383 -0.39226,-1.6281 -0.1819,-2.45204 0.1447,-0.64636 0.75528,-0.64409 1.29863,-0.70022 0.81357,-0.21972 1.6449,-0.48408 2.50682,-0.34468 0.13785,0.31405 -0.23851,0.52693 -0.17622,0.85266 0.44384,0.35546 0.97434,0.77781 0.99116,1.39733 -0.0381,0.54585 0.19012,1.0966 -0.0315,1.61902 0.10702,0.76607 -0.47133,1.38884 -0.50643,2.13269 0.13103,0.72716 -0.62764,0.83635 -0.91674,1.28158 -0.531,0.36128 -0.48711,1.16598 -0.98082,1.50119 -0.76108,0.38762 0.31345,1.15447 0.19999,1.72393 0.0254,0.58834 -0.26259,1.08446 -0.54571,1.57768 -0.18562,0.49919 -0.14064,1.13191 0.36535,1.430916 0.46704,0.25867 1.52992,0.98017 1.75597,0.19586 0.23027,-0.769926 1.08996,-1.039356 1.75907,-0.635106 -0.0523,0.22912 0.11247,0.475896 0.15916,0.784446 0.15688,0.58281 0.91151,0.80088 1.11879,1.40095 -0.76578,1.00074 -0.25363,1.8126 -0.59634,2.89905 -0.50585,1.21078 -0.32695,2.48868 -0.0543,3.64164 -0.61019,0.91228 -1.91499,1.92909 -1.15187,3.18172 0.75616,0.29605 1.04044,1.07851 1.62367,1.52962 1.35977,-0.7797 1.90414,1.02011 2.96416,1.10381 0.92716,0.87996 -0.697,1.96893 0.0739,2.99258 0.78053,0.90439 0.65285,2.35389 1.24334,3.13314 1.2893,-0.0434 0.68823,-1.22944 1.11776,-1.90893 -0.50521,-1.32259 1.87755,-1.42911 1.16789,-0.11988 0.66186,0.53753 0.7931,1.81524 1.81694,1.16582 0.59661,0.78966 1.40438,0.30034 1.87947,-0.36639 -0.29561,1.01978 0.79738,1.79668 1.70894,1.09812 0.83456,-0.92501 1.79558,-0.40533 2.84014,-0.43253 0.89601,-0.79168 1.29865,0.33308 1.23041,1.10743 1.06044,0.74228 0.58897,2.04417 -0.41031,2.5554 0.58805,0.24091 0.566,1.15217 0.12506,1.40146 -0.44137,0.76485 -1.21843,0.5428 -1.9265,0.86093 -0.96309,-0.31682 -1.00883,0.67032 -1.07229,1.31051 0.40172,1.52639 -1.71935,1.68883 -1.60197,3.07372 -0.0573,0.17372 -0.0884,0.38694 -0.24649,0.5023 -0.41241,-0.20842 -1.21037,-0.44805 -1.53324,0.0889 -0.35061,0.52575 -1.03216,0.72804 -1.35548,1.24953 0.0252,0.64112 0.24218,1.33375 0.1695,2.0128 0.39327,0.59674 -0.36564,1.42474 -0.94671,1.57148 -0.62271,-0.3387 -1.06948,0.34942 -1.5136,0.66508 -0.54904,0.1713 -1.1323,0.34608 -1.52859,0.79995 -0.7266,-0.1052 -1.46015,-0.0111 -2.18333,-0.0946 -0.44913,0.44549 -1.13843,-0.20828 -1.46089,0.17053 -0.42113,0.56764 -0.79049,1.17818 -1.32033,1.64125 -0.26276,0.76242 -1.52227,0.16568 -1.68724,1.04903 -0.66332,0.24936 -0.77614,0.85432 -0.75758,1.49086 -0.49637,0.52941 0.35097,0.99594 -0.0341,1.47588 l 0.38654,-0.0388 c 0.58923,-0.14143 0.66093,0.34452 1.27279,0.47594 0.69229,-0.16726 1.15668,0.15721 1.62574,0.55035 0.0331,0.43142 0.8311,0.75388 1.32136,0.93638 0.57963,0.0311 0.59441,0.74435 1.39475,0.51728 0.6464,-0.23385 1.03845,0.42825 0.72967,1.07332 -0.18803,0.54592 -0.19333,1.44374 0.3266,1.80506 0.47392,1.12279 1.91644,1.12311 2.54248,2.11873 0.65826,0.16541 1.47205,-0.0975 2.19315,-0.0475 1.13354,-0.23681 0.97718,1.50422 2.04276,1.52032 0.60142,0.3486 1.19295,0.3883 1.92133,0.26975 0.53817,-0.0594 1.06289,-0.17066 1.62471,-0.27078 0.64213,-0.0318 1.10438,-0.44337 1.74305,-0.092 0.65322,0.13604 1.26248,-0.008 1.90841,-0.23617 0.78989,0.26503 0.23278,-0.74933 0.67696,-0.85628 0.5959,-0.60649 1.04879,-0.3185 1.73064,-0.62321 0.87209,-0.13586 0.46472,-0.48086 0.39688,-1.11156 0.39157,-0.30005 1.11452,-0.57855 1.68052,-0.7028 0.64895,0.30576 1.23323,-0.62565 1.78438,-0.0594 0.76764,-0.1536 1.53249,-0.3261 2.31149,-0.4129 0.35962,-0.0677 1.09741,-0.0648 1.72961,-0.11213 0.85242,-0.28122 1.49885,0.93456 2.32286,0.56999 0.93212,0.22098 1.91956,0.21837 2.86752,-0.017 0.78941,0.31104 1.11008,-0.10035 1.20406,-0.86145 0.0829,-0.75467 1.09373,-0.37672 1.64383,-0.48421 0.56312,0.24115 1.55349,-0.57346 1.40973,0.40721 0.37535,0.2628 1.22181,0.58549 1.4087,0.15606 0.46831,-0.28169 1.18712,0.22228 1.68414,-0.32556 0.43625,-0.56933 0.56624,0.70549 0.42943,1.05989 0,0 1.46141,-0.18039 1.49448,-0.19689 0.0331,-0.0165 1.2485,-1.03357 1.29811,-1.05007 0.0496,-0.016 0.81856,0.0333 1.03353,-0.008 0.21497,-0.0413 0.95912,-0.49608 1.20716,-0.62011 0.24805,-0.12402 0.99219,-0.46303 1.15755,-0.51263 0.16537,-0.0496 0.91778,-0.30593 1.13275,-0.30593 0.21498,0 0.71934,-0.0662 0.84336,-0.12402 0.12402,-0.0579 1.03405,-0.2527 1.03405,-0.2527 1.79278,0.86684 -1.10366,1.3465 0.0605,2.46703 0.48072,0.95927 1.46759,2.22245 0.59066,3.38636 -0.59095,1.16115 1.28304,0.76437 0.81132,1.69396 -0.88625,1.2798 0.91563,0.36223 1.10226,0.9157 0.64819,1.6048 -1.85438,1.02259 -2.20917,2.26549 0.39625,1.21906 -0.29146,2.47741 -0.89504,3.63183 0.0234,0.96632 -0.89847,1.39391 -1.30896,2.18591 0.99707,1.79859 -1.2699,2.46248 -2.32802,3.18947 0.79201,1.60958 1.62716,-0.8321 2.44946,-0.73122 0.91775,-0.96206 2.23354,0.052 3.33365,0.12298 0.39413,0.82731 1.11619,2.17893 2.35024,1.33894 0.85695,-0.55852 1.25386,1.81465 1.44332,0.96377 -0.63885,-1.01819 0.7883,-0.66687 0.87437,0.0315 1.80886,0.0292 0.92614,1.80184 1.88774,2.55953 0.88048,-0.11004 1.66768,-1.49992 1.88981,-2.48874 0.12576,-1.31261 0.18838,-3.37281 1.7725,-3.76514 1.49326,0.26459 2.51553,-1.15635 3.78013,-1.33997 1.33785,-0.40758 2.64262,-0.009 3.90674,0.70693 1.2666,0.98498 2.84731,1.25172 4.19561,2.10427 0.67389,0.95806 2.15813,-0.21922 3.11505,1.19114 0.15638,-0.0432 0.29895,-0.0894 0.40256,-0.12919 0.34653,-0.1332 0.3137,0.10832 0.90124,-0.077 0.58753,-0.18529 1.60959,-1.13811 1.62419,-0.79788 0.0311,0.72408 0.48064,0.23745 0.50074,0.4749 0.0501,0.59189 0.76086,0.92183 0.84956,1.07332 -0.0275,0.05 -0.10391,0.19419 -0.17311,0.36587 0.34304,0.10088 0.61479,0.13693 0.7214,-0.24081 0.77164,0.13478 1.42834,-0.3591 2.20245,-0.3359 1.19271,-0.0588 1.185,-1.5595 2.34818,-1.4981 0.55242,-0.41957 1.18003,-0.96906 1.72961,-0.30024 -0.51885,0.75518 0.74207,0.5191 0.80977,1.24489 -0.68528,1.06655 -2.12758,-0.6377 -2.50528,0.68936 -1.01084,0.53589 0.22768,1.30025 -0.30799,1.90789 -0.9979,0.2841 -1.09969,1.65743 -0.25631,2.10168 0.72249,0.72508 2.14737,-0.38213 2.45204,0.68989 0.71639,-0.10292 1.53335,-0.43491 2.35438,-0.20516 0.67235,-0.54603 2.39286,0.77248 2.22571,-0.55139 0.14106,-0.78029 0.64022,-1.86576 1.61385,-1.58078 0.77167,-0.81808 1.13193,-1.9071 1.78594,-2.81068 0.0576,-0.92182 1.87749,-1.58887 1.00252,-2.47685 -0.19652,-1.02885 0.87804,-1.57013 0.98754,-2.52853 0.68583,-0.39816 0.6366,-1.13557 -0.10491,-1.47278 -0.88034,-0.50591 -1.61695,-1.26724 -2.1239,-2.08928 0.82681,-0.39714 0.61296,-1.46717 1.50999,-1.82521 0.03,-0.98397 1.52873,-0.92669 2.08256,-1.40663 -0.49028,-0.0512 -1.84977,0.4188 -1.69137,-0.59325 0.94898,-0.37375 0.20709,-1.19499 -0.48576,-0.67386 -0.72952,-0.52111 0.86463,-0.89896 0.87953,-1.58026 0.36063,-0.72714 -0.24968,-1.62989 0.0393,-2.45308 0,0 -0.0264,-0.87441 -0.14211,-0.91571 -0.0661,-0.0165 -0.47955,0.23149 -0.79375,0.0827 -0.31419,-0.14883 -0.79376,-0.16537 -0.92604,-0.49609 -0.13229,-0.33073 -0.61186,-0.47956 -1.09141,-0.64493 -0.47956,-0.16535 -0.49609,-0.49609 -0.16537,-0.62838 0.33029,-0.13229 0.33745,-0.79479 0.33745,-0.79479 0.50038,-0.15753 -0.005,-0.71874 0.36484,-1.03197 0.32513,-0.27781 0.65209,-0.71518 1.12964,-0.47439 0.36233,0.0187 0.48908,-0.43006 0.88936,-0.49816 0.30154,-0.51686 0.76084,0.20765 0.84594,-0.51884 0.42223,-0.41393 -0.78214,-0.62089 -0.15968,-0.94722 0.31054,-0.17557 0.57882,-0.84503 0.91725,-0.69453 0.29786,0.33147 0.83978,0.27606 1.05162,0.67282 1.12349,0.50659 1.79027,1.70046 1.95647,2.87735 0.63158,0.63897 1.75717,0.35825 2.54145,0.69194 1.00383,0.0936 2.51816,-0.19316 3.21789,0.60513 0.0885,1.19029 1.88009,1.07238 2.72696,1.2299 0.96457,-0.6759 0.69527,1.19331 1.61489,1.31982 0.49666,1.29304 1.3777,2.2154 2.49907,3.02462 0.0517,0.4879 0.41653,0.79586 0.92863,0.85318 0.90947,0.19547 1.49994,1.21536 2.51251,1.21543 0.28705,0.24206 0.8825,1.17859 1.0635,0.0987 -0.17224,-0.93854 1.34517,-0.34088 1.73168,-1.08624 0.24618,-0.49768 1.13703,-0.70774 1.35547,-0.14056 0.12816,0.82106 1.32719,0.7172 1.23197,1.68982 0.78633,0.5502 2.12371,-0.0252 2.95796,0.35399 0.11354,0.67446 0.44521,1.43112 1.18959,0.94412 1.16579,0.31077 2.25459,0.9278 2.19108,2.19884 0.20693,0.0947 0.50327,0.0329 0.6165,-0.17364 0.36565,0.37275 1.98231,0.95347 2.46186,0.99788 0.21319,0.0197 0.39556,0.0628 0.57516,0.0956 0.22441,0.041 0.44412,0.0657 0.71365,0.009 0.48523,-0.1021 0.84317,-0.74042 1.04748,-0.51057 0.20431,0.22985 0.54677,0.49714 0.92811,0.60462 0.38132,0.10745 0.70617,0.90224 1.03818,0.72347 0.34795,-0.16367 1.04179,-0.0918 0.87178,-0.98961 0.0491,-0.21133 0.19007,-0.41051 0.37001,-0.5271 0.17702,-0.63631 -0.38161,-0.91376 -0.68523,-1.32291 0.72953,-0.62703 0.82966,0.46973 1.28622,0.7307 0.47932,-0.0609 0.7506,-0.58414 1.26298,-0.49248 l 1.39371,-0.0574 c -0.0924,-0.6594 0.29186,-1.11527 0.0661,-1.77301 0.0854,-0.67248 -0.73781,-0.39773 -0.99581,-0.87695 -0.54604,-0.0535 -1.092,-0.44121 -1.59525,-0.67231 -0.64492,-0.49629 -0.26274,-1.40107 -0.0207,-2.02779 0.48072,-0.44747 -0.0688,-1.07158 0.4067,-1.49706 0.25709,-0.70764 -0.7975,-0.99323 -1.28364,-1.23713 -0.59671,-0.30893 -1.29613,-0.19504 -1.90841,-0.44649 -0.75855,0.19213 -1.2237,-0.48152 -1.14722,-1.16892 -0.32509,-0.42181 -0.73148,-1.13375 -0.51212,-1.6831 0.60469,-0.24015 1.24949,0.16657 1.8955,0.0393 0.49096,0.31435 0.96676,-0.65667 0.33848,-0.80719 0.28734,-0.24418 0.4486,-0.37714 0.0222,-0.6227 -0.20571,-0.28347 0.17717,-0.83031 -0.41651,-0.93896 -0.0189,-0.41932 0.33179,-1.05024 -0.33951,-1.12138 -0.3928,-0.0316 -0.84642,-0.28988 -0.47078,-0.67179 -0.21982,-0.21702 -0.27273,-0.64647 -0.58653,-0.7581 -1.00685,0.12309 -1.97288,-0.2455 -2.95434,-0.25114 -0.93824,0.22811 -2.52921,0.78974 -2.55333,-0.64027 -1.418,-0.30163 -0.20159,-2.12122 -0.54932,-3.08147 -0.44018,-0.88594 -1.48869,-1.24683 -2.27945,-1.79575 -0.99664,-0.09 -1.71663,-1.02491 -2.53834,-1.53479 -0.66704,0.0894 -1.81556,-0.002 -1.67949,0.83974 -0.46928,-1.01353 -1.91952,-1.02311 -2.08462,-2.22829 -0.6152,-0.89333 -1.80349,-0.75389 -2.53112,-1.60765 -0.18819,-0.9026 0.6582,-1.86761 0.90228,-2.78382 -0.1358,-0.66183 -0.32528,-1.64397 0.65319,-1.35908 -0.11206,-0.76973 0.27639,-1.31554 0.74207,-1.84899 -0.6389,-0.14577 -2.3552,-1.3142 -0.82114,-1.63762 0.76159,0.0891 1.07164,-1.67454 1.75648,-0.50075 0.64604,0.17375 0.91092,-0.71562 1.81643,-0.29094 0.53904,-0.13742 0.64263,-1.0438 1.1498,-1.00355 0.26905,-0.6848 0.18218,-1.42854 -0.5085,-0.64648 -0.36084,0.4705 -1.52629,0.97637 -1.22008,-0.0284 -0.57173,-1.11987 -2.05407,-0.15164 -3.10265,-0.42219 -0.92291,-0.66186 -1.85692,-0.087 -2.58279,0.58859 -0.64261,-0.24954 -0.57638,-1.19838 -1.48621,-0.97461 -0.86512,0.12498 -2.108,0.4311 -2.99103,-0.44339 -0.1507,-0.76689 -0.60496,-0.21505 -1.16738,-0.36948 -0.77323,0.54212 -1.2801,0.93835 -2.30011,0.86196 -0.59924,0.0776 -1.58162,0.28523 -1.66192,-0.58756 -0.12023,-0.27762 0.30265,-0.59055 -0.25425,-0.49455 -0.47145,0.0152 -1.19409,0.39421 -1.19372,-0.36173 -0.4866,-0.22757 -0.45491,-0.9941 -1.03353,-0.82631 -0.2397,-0.38293 -0.1356,-1.00107 -0.74776,-1.0883 -0.57505,-0.38891 0.47998,-1.24461 -0.4439,-1.31517 -0.29891,-0.62059 -1.00168,-0.10191 -1.46813,-0.25838 -0.67645,0.26988 -0.72011,-0.88005 -1.28829,-0.57412 -0.47355,-0.0376 -1.24898,-0.13861 -1.49965,-0.56948 0.32874,-0.50848 0.1518,-0.95693 -0.2713,-1.34204 -0.40929,-0.67681 -1.10279,0.35448 -1.60197,-0.24753 -0.62997,0.0266 -1.29393,-0.18996 -1.85467,0.24547 -0.54044,-0.0387 -1.06438,0.0775 -1.3534,0.5395 -0.63262,0.18355 -1.08439,-0.19163 -1.13068,0.18758 -0.32945,-0.0774 -0.82229,-0.17392 -0.99529,-0.21032 -0.34304,-0.0722 -0.43351,-0.46954 -0.37931,-1.01131 0.0542,-0.54176 -0.27071,-0.54188 -0.55965,-0.74052 -0.289,-0.19865 -0.10832,-0.66837 0.0181,-1.11983 0.12641,-0.45147 -0.23481,-1.13744 -0.68627,-1.49861 -0.45148,-0.36118 -0.81278,-1.4088 -0.79478,-1.80609 0.0181,-0.39731 0.16273,-0.99292 0.0904,-1.46245 -0.0722,-0.46953 -0.45146,-1.04773 -0.34313,-1.21026 0.10835,-0.16253 0.0723,-1.04711 -0.2527,-1.11931 -0.32506,-0.0722 -0.5962,-0.83069 -0.524,-1.31827 0.0722,-0.48759 0.63211,-0.613986 1.0294,-0.650086 0.39729,-0.0361 0.57816,-0.39765 0.84904,-0.56017 0.27088,-0.16253 0.98789,-0.17387 1.62729,-0.58704 0.6394,-0.41317 -0.38341,-0.97033 -0.68988,-1.35341 -0.271,-0.33879 -0.86149,-0.43781 -1.45366,-0.47387 l -0.12247,-1.32757 c -0.0102,-0.0817 0.28907,-1.10636 0.96428,-1.21853 0.51212,-0.0538 0.98197,0.0441 1.4609,0.20826 0.49602,0.46525 1.11115,0.75746 1.78955,0.85576 0.53913,-0.0646 0.9811,-0.50139 1.53428,-0.68472 0.51632,-0.45148 1.25361,-0.23145 1.70893,-0.72553 0.57138,-0.19254 1.10433,-0.27917 1.6769,-0.38086 0.75315,-0.0846 0.70662,-0.88253 -0.11885,-0.7059 -0.3336,-0.26268 -0.26031,-1.04472 -0.65216,-1.47588 -0.0627,-0.6623 -0.78715,-0.72416 -0.62167,-1.41386 0.42263,-0.34639 1.08698,-0.56882 1.27176,-1.00614 0.44237,-0.3185 0.95319,0.29925 1.54616,0.0754 0.2045,0.52954 0.66789,0.7984 1.35031,0.49352 0.48265,-0.083 1.16223,-0.29995 1.56217,0.0971 0.30667,0.13311 1.40861,-0.33954 1.06505,0.48318 0.7844,0.46167 -0.16049,0.99534 -0.16949,1.58078 0.65045,0.20482 0.78439,1.04741 0.33434,1.45624 -0.23639,0.21956 -0.60118,1.56478 0.0786,1.13534 0.45238,0.0862 1.43088,-0.38932 1.40198,0.31264 0.22343,0.24233 1.00562,0.11808 1.23094,0.56224 0.66016,0.0223 1.17144,0.32001 1.11414,-0.56534 0.84944,-0.35791 0.74377,0.6593 0.18397,0.95653 -0.47168,0.39087 -0.12095,1.38406 0.53382,0.97203 -0.38006,0.85627 1.1646,0.63294 0.42426,0.0429 -0.035,-0.53569 0.88048,-0.2568 1.18494,-0.42736 0.75926,-0.38512 0.26618,0.87945 1.03456,0.86041 0.49963,0.24392 1.41284,-0.13605 1.01751,-0.76171 -0.86536,0.16591 -0.51942,-0.64409 0.0909,-0.68884 0.66698,-0.75826 0.65181,0.35745 1.15652,0.0336 -0.0742,-0.62695 0.55875,-0.37149 0.7798,-0.90175 -0.45728,-0.49804 0.61292,-0.92856 0.92397,-0.67903 0.3964,-0.8005 -0.91901,-0.1153 -0.8294,-0.82786 -0.22605,-0.78405 0.91611,-0.78958 0.54828,-1.38596 -0.37996,-0.33192 -0.43959,-0.96716 -0.0367,-1.30534 0.077,-0.56339 0.84462,-0.74771 0.88522,-1.21957 -0.17608,-0.60036 0.60481,-0.78165 1.13223,-0.65474 0.19658,-0.37815 0.69781,-0.7939 1.11983,-1.0082 0.62043,0.0381 0.78413,-0.21611 0.61133,-0.97669 0.50426,-0.49347 1.36479,0.2337 1.87689,-0.32453 0.73632,-0.73302 1.57063,-0.19079 2.27893,0.20619 0.93295,-0.24201 2.05728,-0.78605 2.85874,-1.42833 0.88761,-0.17396 0.65523,-0.55601 1.19838,-0.65216 0.92187,0.1154 1.75388,-0.28717 2.57658,-0.60927 1.04485,-0.0401 1.9447,-0.60762 2.97088,-0.69763 0.55397,0.0831 1.53994,0.0825 1.25625,0.91571 0.81989,0.20625 1.71714,-0.10775 2.52853,-0.33125 0.85964,-0.1451 -0.042,-0.84223 0.53485,-1.35806 0.34557,-0.52039 0.10519,-1.70456 0.98496,-1.62935 0.45917,-0.87747 -0.005,-1.98324 -0.7705,-2.53008 0.10488,-0.57922 -0.68721,-1.75022 -0.0331,-1.90273 0.19618,0.10965 0.30549,0.18569 0.38809,0.40773 l -0.0429,0.3235 c 0.15758,0.20223 0.35479,0.35574 0.69401,0.34519 0.26367,-0.0968 0.49532,-0.22509 0.7183,-0.40256 0,0 1.05654,-1.317 1.30432,-1.15755 0.24778,0.15945 1.01386,0.93526 1.20871,0.39378 0.19483,-0.5415 -0.46613,-1.27633 -0.23771,-1.62213 0.22841,-0.3458 0.81177,-0.90608 1.44384,-0.36432 0.63203,0.54176 1.13769,1.87842 1.66139,1.86036 0.52371,-0.018 0.57756,-1.31856 1.11931,-1.17409 0.54177,0.14447 0.9394,0.65026 1.5534,0.75861 0.61399,0.10833 1.73347,0.12624 2.22105,0.55965 0.4876,0.43341 1.03707,1.29413 1.67949,1.37253 0.64241,0.0784 1.10151,-0.0901 1.28209,0.0724 0.0561,0.0505 0.15217,0.1899 0.26406,0.36948 0.10297,-0.0733 0.20674,-0.14513 0.30851,-0.22014 0.21479,-0.39799 0.64245,0.14055 0.15451,0.14624 0.22245,0.3369 1.00476,0.26573 1.35858,0.016 0.45005,0.43703 0.87518,0.0495 1.04283,-0.47335 0.37891,-0.22679 0.46999,-1.09545 -0.12609,-0.93845 -0.37283,0.0559 -0.58634,-0.67555 -0.92863,-0.91312 -0.48346,-0.12416 -0.76441,-1.14608 -0.0868,-1.13998 0.38102,0.45131 0.87275,-0.0351 1.29294,0.27647 0.41572,0.124 0.88426,0.89569 1.25729,0.30282 0.43936,-0.0862 0.54632,0.38196 0.10955,0.50023 -0.1204,0.66263 0.45166,-0.0913 0.74104,-0.0532 0.0864,-0.43537 0.42919,-0.0564 0.65526,-0.19327 0.22127,-0.47835 0.59155,-0.15517 0.9772,-0.0842 0.0731,0.5371 -0.68709,0.3541 -0.66869,0.78858 -0.48621,0.37968 0.13779,0.90578 0.57206,0.61392 0.52407,0.0964 1.27632,-0.60977 0.87126,-1.09296 -0.49416,-0.25253 -0.0141,-0.78008 -0.2744,-1.05988 -0.12184,-0.38981 -0.16125,-0.89769 -0.016,-1.31775 -0.28323,-0.43284 0.44799,-1.15364 0.67955,-0.49093 -0.31332,0.42063 0.41816,0.82175 0.17518,1.34204 0.47679,0.59111 0.69008,-0.48284 1.20768,-0.38447 0.37551,-0.21438 0.21254,-0.5245 0.39739,-0.69557 -0.23083,-0.57259 -0.32217,-1.18276 -0.45992,-1.76475 0.38156,-0.18431 0.2971,-0.48366 0.2744,-0.85783 0.14491,-0.62597 -0.85728,-0.11463 -0.9958,-0.69246 -0.40844,0.12978 -0.71158,-0.2578 -0.53072,-0.66766 0.65981,-0.286 0.0541,-0.76916 0.0424,-1.2237 -0.28461,0.10616 -0.71615,0.5427 -0.93327,-0.0114 -0.11414,-0.43559 -0.32184,-0.74331 -0.52245,-1.14515 0.20329,-1.98515 0.25977,-0.14103 2.00039,-0.38912 0.73601,0.5099 1.60056,-0.14749 2.40761,0.0744 0.68944,-0.36419 1.03972,0.78545 0.26717,0.68885 -1.06867,0.80911 0.34221,1.35039 1.15961,1.06867 0.2418,-0.69413 0.97982,-0.7189 1.51257,-0.36122 0.83664,0.0447 1.4272,0.85085 2.35231,0.64803 0.25295,0.8951 1.0799,0.28275 1.67226,0.3979 0.57087,-0.82498 -1.16934,-0.80473 -0.647,-1.31671 -1.08386,0.19401 0.0925,-0.59812 0.58085,-0.28061 0.95196,0.47223 1.55817,-0.3701 2.29185,-0.5767 0.70779,-0.59848 0.23776,-1.18663 -0.54312,-1.33636 0.40702,-0.44869 -0.5805,-1.36394 0.45579,-1.04851 0.67894,-0.59844 -0.21799,-0.48958 -0.53692,-0.72709 0.25223,-0.40124 0.46052,-0.82952 0.19223,-1.30793 0.52678,-0.16803 1.19732,0.22941 1.67535,0.50281 0.28981,0.61656 1.2143,1.28666 1.9942,0.87282 1.12456,0.23121 -0.54889,-1.21909 0.59221,-1.25677 -0.0523,-0.86997 0.79733,-0.59225 1.36219,-0.82476 0.0568,-0.48294 -1.01088,-1.07945 -1.5782,-1.33997 -0.3195,-0.5727 1.1114,-0.19459 1.40922,-0.43253 0.89066,-0.54464 1.6737,0.46465 2.51767,0.37569 0.66501,-0.18111 1.9997,0.9306 2.13217,-0.29611 0.5592,-0.93336 -0.40538,-1.33187 -0.95343,-1.80764 -0.10448,-0.99464 -1.41081,-0.14071 -1.84484,-0.82269 0.70719,-0.66229 -0.48893,-1.27469 0.18035,-1.87379 0.4197,-0.0484 0.42346,0.48722 0.66869,0.69712 0.3251,-0.60931 1.29528,-0.273 1.6676,-0.94723 1.03311,-0.15078 0.89644,-1.08367 1.12654,-1.88102 0.92977,0.75027 1.5197,-0.33275 2.28772,-0.6227 0.56411,-0.69273 0.0233,-1.47807 0.7276,-2.09548 0.59458,-0.65605 1.02905,-1.48936 1.41129,-2.2133 -0.91941,-0.5446 1.21542,-0.62646 0.37982,-1.35599 -0.25588,0.53349 -1.47032,0.29578 -0.78187,-0.29456 -0.22789,-0.61817 0.3265,-0.92405 0.68885,-1.43712 1.62667,0.0432 -0.36556,-1.51781 0.71882,-1.78181 0.78481,-0.82453 -0.72049,0.12525 -0.34727,-0.73122 -0.25877,-0.85793 -0.36127,-0.0558 -0.54622,0.34623 -0.87173,0.23527 0.36148,-0.89603 -0.0305,-1.34203 -0.593,-0.68372 0.48452,-1.02315 0.21963,-1.57458 -0.24218,-0.89362 -1.40873,-0.79063 -1.83193,-1.24747 0.54201,-0.68596 1.98744,-0.0917 2.6541,0.41186 0.0686,0.44896 1.35504,1.09406 1.47691,0.55552 0.68185,0.2384 1.20212,-0.37401 1.92547,-0.3545 -0.17179,-0.98561 1.09248,-0.7222 1.07849,-1.5596 0.19223,-1.18727 -1.06406,-0.31945 -1.61231,-0.71365 -0.65708,-0.69785 1.2234,0.32782 1.2547,-0.37362 0.34227,-0.87422 -0.90634,-0.012 -0.79943,-0.63717 0.47937,-0.18017 1.30056,0.14608 1.10588,-0.78186 0.29601,-0.59436 0.24387,-1.1042 -0.52814,-1.21698 -1.01984,-0.0453 -0.20416,-0.87972 0.0119,-1.32085 -0.30071,-0.5789 0.45941,-0.75632 0.19585,-1.25109 -0.51109,-0.13259 -0.8539,-0.38828 -1.08417,-0.93276 -0.51143,0.69377 -1.30813,0.19496 -2.0438,0.002 -0.44113,-0.92921 -0.87366,0.0278 -1.22318,-1.04438 0.28972,-0.47071 0.74819,-0.74414 0.85318,-1.37511 0.86718,-0.28825 -0.46768,1.23169 0.32659,1.048 0.73034,0.61703 1.40177,-0.53717 1.50585,-1.16737 0.8461,-0.22571 0.12928,-1.11325 -0.0827,-1.65261 0.48842,-0.17189 1.88056,0.37424 1.39423,-0.69505 0.54248,-0.43617 -0.6567,-0.83525 0.004,-0.96635 1.10106,0.0602 1.88853,-0.78686 2.87838,-1.11724 1.40203,-0.0981 1.11523,-1.74653 0.77101,-2.65669 -0.59383,-0.81165 -1.50712,-1.31717 -2.22932,-2.00659 -0.81999,-0.53338 -0.84991,-1.55424 -1.60197,-2.12132 -0.62732,-0.58586 -1.01408,-1.42567 -1.84485,-1.79059 -0.95957,-0.63789 -2.14083,-0.80768 -3.0794,-1.48466 -0.69352,-0.43916 -1.19593,-1.14837 -1.19993,-1.98851 2.7e-4,-0.78094 0.002,-1.57702 0.18087,-2.3363004 0.37756,-0.96344 0.55514,-1.97684 0.71159,-2.99413 0.0186,-0.26284 -0.0264,-0.51905 -0.0889,-0.77101 0.0539,-0.73617 -0.63388,-0.43708 -1.09451,-0.65422 -0.93919,-0.20979 -1.91626,-0.14433 -2.84737,-0.38809 -0.0169,-0.49919 0.0842,-1.11515 -0.6227,-1.16272 -0.67887,-0.16599 0.0337,-0.69421 -0.16484,-0.99426 0.28024,-0.50307 -0.89984,-0.0518 -0.44804,-0.49971 -0.30091,-0.0997 -0.84254,-0.0376 -1.2299,-0.0222 -0.52062,0.15982 -1.26379,-0.0195 -1.6123,-0.41909 -0.0704,0.32654 -0.32558,0.39154 -0.59118,0.15916 -0.47852,0.27442 -1.03956,-0.0636 -1.36323,-0.48783 -0.50952,-0.0942 -0.4102,-0.54588999 -0.077,-0.78650999 -0.0582,-0.26077 -0.16648,-0.33205 -0.29456,-0.31006 z"
     style="display:inline;fill:#a30000;fill-opacity:1;stroke:none;stroke-width:0.27738124;stroke-miterlimit:10;stroke-dasharray:none;stroke-opacity:1"
     id="rect2929" />
</svg>
